<svg width="58" height="8" viewBox="0 0 58 8" fill="none" xmlns="http://www.w3.org/2000/svg">
<path fill-rule="evenodd" clip-rule="evenodd" d="M3.73684 7.47591C5.80064 7.47591 7.47368 5.80239 7.47368 3.73799C7.47368 1.67359 5.80064 6.10352e-05 3.73684 6.10352e-05C1.67304 6.10352e-05 0 1.67359 0 3.73799C0 5.80239 1.67304 7.47591 3.73684 7.47591Z" fill="#2D74DA"/>
<path opacity="0.5" fill-rule="evenodd" clip-rule="evenodd" d="M20.2105 7.47591C22.2743 7.47591 23.9474 5.80239 23.9474 3.73799C23.9474 1.67359 22.2743 6.10352e-05 20.2105 6.10352e-05C18.1467 6.10352e-05 16.4737 1.67359 16.4737 3.73799C16.4737 5.80239 18.1467 7.47591 20.2105 7.47591Z" fill="#79A6F6"/>
<path opacity="0.5" fill-rule="evenodd" clip-rule="evenodd" d="M37.3685 7.47585C39.4323 7.47585 41.1053 5.80233 41.1053 3.73793C41.1053 1.67353 39.4323 0 37.3685 0C35.3047 0 33.6316 1.67353 33.6316 3.73793C33.6316 5.80233 35.3047 7.47585 37.3685 7.47585Z" fill="#79A6F6"/>
<path opacity="0.5" fill-rule="evenodd" clip-rule="evenodd" d="M54.2631 7.47585C56.3269 7.47585 58 5.80233 58 3.73793C58 1.67353 56.3269 0 54.2631 0C52.1993 0 50.5263 1.67353 50.5263 3.73793C50.5263 5.80233 52.1993 7.47585 54.2631 7.47585Z" fill="#79A6F6"/>
</svg>
